<svg width="400" height="400" xmlns="http://www.w3.org/2000/svg">
 <g id="Layer_1">
  <title>Layer 1</title>
  <rect fill="#ffffff" stroke="#000000" x="25" y="80" width="350" height="240" id="svg_3" stroke-width="32" rx="8"/>
  <path id="svg_8" d="m57.97125,199.99989c0,-29.52904 0,-59.05808 0,-88.58712c5.22118,0 10.44236,0 15.66354,0c0,59.05808 0,118.11616 0,177.17423c-5.22118,0 -10.44236,0 -15.66354,0c0,-29.52905 0,-59.05808 0,-88.58712l0,0.00001zm23.13932,0c0,-29.52904 0,-59.05808 0,-88.58712c3.82058,-1.47074 5.82729,1.09849 4.99259,5.96202c0.05642,27.06716 0.11284,54.13432 0.16926,81.20147c9.65979,-9.1369 13.31955,-24.95721 16.31297,-39.41015c1.718,9.41225 4.45034,20.87465 12.295,23.94206c7.47695,2.97115 14.09876,-6.34249 14.0208,-15.88436c1.30592,-12.19351 1.48663,-24.86141 -0.51678,-36.92044c-1.87567,-7.62933 -7.49734,-13.92985 -13.74933,-13.42576c-5.14517,-3.13549 -10.91574,6.53949 -4.32169,10.08061c5.54547,7.79888 -0.90063,21.14989 -8.61027,18.02385c-7.47457,-2.11992 -9.46244,-15.16498 -5.13769,-22.53985c6.20374,-10.71635 17.6398,-12.06785 27.0388,-10.50807c12.22991,1.8418 21.53193,16.43197 22.85055,32.20634c1.68386,14.0768 -1.06076,29.98105 -9.96373,38.97592c-7.46479,8.31961 -18.43731,9.35848 -27.2088,4.27578c-2.13318,4.2483 -4.26637,8.49657 -6.39955,12.74486c2.09583,4.14495 4.19164,8.2899 6.28746,12.43483c10.62156,-6.3018 24.50509,-3.02562 31.52678,9.79561c9.88973,17.26906 7.96061,45.02558 -4.88533,58.8071c-8.06815,8.72104 -19.40829,8.75103 -28.99673,5.26474c-7.25635,-2.56319 -14.33585,-11.90293 -12.09174,-22.54747c1.13216,-9.27624 10.77005,-12.76611 15.46546,-5.86238c6.39346,7.64553 -2.87333,15.34537 -2.39839,22.71454c7.11416,7.1372 18.63732,0.41768 20.29336,-10.96629c2.63286,-12.49865 2.01452,-25.78461 0.72687,-38.49333c-0.69052,-8.54414 -6.30607,-17.1579 -13.26792,-14.77494c-7.32312,2.20115 -10.97826,12.29284 -12.23264,21.25159c-1.53778,6.56088 -2.02832,-6.27292 -3.22841,-8.37388c-2.49468,-10.53 -6.84686,-20.87214 -13.54702,-27.51088c-0.69023,2.8394 -0.06245,6.38131 -0.28328,9.52004c-0.05348,25.73023 -0.10697,51.46044 -0.16044,77.19067c-3.82287,1.47161 -5.82536,-1.0995 -4.98017,-5.96205c0,-27.54168 0,-55.08337 0,-82.62506l0,0.00001z" stroke-width="8" stroke="#000000" fill="#ffffff"/>
 </g>

</svg>